<?xml version="1.0" encoding="iso-8859-1"?>
<!-- Generator: Adobe Illustrator 23.0.3, SVG Export Plug-In . SVG Version: 6.00 Build 0)  -->
<svg version="1.1" id="Layer_1" xmlns="http://www.w3.org/2000/svg" xmlns:xlink="http://www.w3.org/1999/xlink" x="0px" y="0px"
	 viewBox="0 0 125 31" style="enable-background:new 0 0 125 31;" xml:space="preserve">
<g>
	<path style="fill:#FFFFFF;" d="M18.987,11.371h-5.63C13.107,9.589,12.168,8.4,10.323,8.4c-1.282,0-2.158,0.625-2.158,1.939
		c0,1.377,1.001,2.221,4.566,3.065c4.754,1.126,6.694,3.502,6.694,6.82c0,4.316-4.128,6.505-8.477,6.505
		c-5.474,0-9.165-2.189-9.509-7.037h5.63c0.376,2.033,2.034,2.908,3.722,2.908c1.564,0,2.752-0.813,2.752-2.002
		c0-1.125-0.813-2.094-3.472-2.751c-4.91-1.221-7.788-2.753-7.788-7.069c0-4.161,3.879-6.507,8.164-6.507
		C16.141,4.271,18.518,7.367,18.987,11.371z"/>
	<path style="fill:#FFFFFF;" d="M39.946,11.716c0,4.253-2.847,6.474-5.975,6.85c-1.157,0.125-2.033,0.156-3.379,0.156h-2.502v7.57
		H22.46V4.709h8.133c1.346,0,2.222,0.031,3.379,0.156C37.1,5.241,39.946,7.462,39.946,11.716z M34.065,11.716
		c0-1.627-0.844-2.471-2.283-2.596c-0.407-0.032-0.907-0.032-1.501-0.032h-2.19v5.255h2.19c0.594,0,1.094,0,1.501-0.032
		C33.221,14.187,34.065,13.342,34.065,11.716z"/>
	<path style="fill:#FFFFFF;" d="M46.046,20.693l-1.815,5.599h-5.974l7.789-21.583h6.881l7.788,21.583h-6.13l-1.815-5.599H46.046z
		 M47.422,16.313h4.004l-2.002-6.631L47.422,16.313z"/>
	<path style="fill:#FFFFFF;" d="M81.206,26.292h-6.131c-0.5-1.532-0.813-2.784-1.001-4.316c-0.281-2.378-1.22-3.753-2.659-3.848
		c-0.625-0.031-1.157-0.031-1.782-0.031h-1.251v8.195H62.75V4.709h8.571c1.345,0,2.221,0.031,3.379,0.156
		c3.127,0.376,5.849,1.908,5.849,5.724c0,2.721-1.47,4.536-4.348,5.38c2.252,0.814,3.065,2.471,3.379,5.068
		C79.861,23.477,80.361,25.009,81.206,26.292z M70.414,14.03c0.594,0,1.095,0,1.502-0.031c1.438-0.125,2.752-0.626,2.752-2.44
		s-1.157-2.314-2.596-2.439c-0.407-0.032-0.907-0.032-1.501-0.032h-2.19v4.942H70.414z"/>
	<path style="fill:#FFFFFF;" d="M100.194,11.371h-5.63C94.313,9.589,93.375,8.4,91.529,8.4c-1.282,0-2.158,0.625-2.158,1.939
		c0,1.377,1.001,2.221,4.566,3.065c4.754,1.126,6.694,3.502,6.694,6.82c0,4.316-4.128,6.505-8.477,6.505
		c-5.474,0-9.165-2.189-9.509-7.037h5.63c0.376,2.033,2.034,2.908,3.722,2.908c1.564,0,2.752-0.813,2.752-2.002
		c0-1.125-0.813-2.094-3.472-2.751c-4.91-1.221-7.788-2.753-7.788-7.069c0-4.161,3.879-6.507,8.164-6.507
		C97.347,4.271,99.725,7.367,100.194,11.371z"/>
	<path style="fill:#FFFFFF;" d="M123.561,26.292h-5.63v-8.383h-8.634v8.383h-5.63V4.709h5.63v8.821h8.634V4.709h5.63V26.292z"/>
</g>
<g>
	<path style="fill:#FF4040;" d="M51.124,18.185c1.342-0.563,4.271-2.027,4.424-3.75c0.152-1.781-4.641-1.541-7.523,1.377
		c-0.234,0.234-0.621,0.638-0.82,0.908h0.27c0.727,0.012,1.242,0.334,1.4,0.984c0.709-0.943,1.33-1.869,2.08-2.771
		c0.27-0.328,0.85,0.1,0.58,0.428c-0.732,0.884-1.453,1.787-2.15,2.707c-0.17,0.229-0.346,0.463-0.516,0.697
		c-0.211,0.727-0.814,1.916-1.301,2.385c-0.416,0.41-0.855,0.357-0.756-0.135c0.176-0.82,1.441-2.443,1.459-2.496
		c0.006-0.035,0.012-0.076,0.012-0.111c0.064-0.697-0.223-1.002-0.867-1.014c-0.287,0-0.662,0.053-0.855-0.164
		c-0.328-0.375,0.199-0.967,0.463-1.271c0.188-0.211,0.387-0.416,0.586-0.621c1.248-1.26,2.9-2.139,4.535-2.514
		c0.762-0.176,1.6-0.264,2.355-0.129c0.896,0.152,1.775,0.662,1.682,1.752c-0.152,1.769-2.314,3.14-3.861,3.908
		c0.768,0.334,1.131,1.125,0.791,2.01l4.055-0.703c0.357-0.199,0.621,0.398,0.264,0.598l-4.752,0.85
		c-0.973,1.26-2.771,1.963-4.201,2.104c-0.34,0.035-0.75,0.047-1.078-0.053c-0.34-0.1-0.609-0.393-0.404-0.809
		c0.346-0.697,2.051-1.213,2.695-1.377c0.873-0.229,1.781-0.369,2.666-0.498c0.527-0.826,0.158-1.441-0.645-1.588
		c-0.164-0.029-0.328-0.035-0.498-0.029c-0.123,0.053-0.252,0.1-0.375,0.152c-0.34,0.129-1.107,0.416-1.459,0.451
		c-0.445,0.047-0.527-0.381-0.258-0.621c0.088-0.076,0.211-0.135,0.316-0.182C49.976,18.413,50.55,18.231,51.124,18.185z
		 M51.651,21.261c-1.148,0.188-2.795,0.486-3.826,1.143c-0.035,0.023-0.1,0.07-0.164,0.117c0.24,0.059,0.568,0.041,0.809,0.018
		C49.489,22.438,50.761,22.005,51.651,21.261z"/>
	<path style="fill:#FF4040;" d="M59.515,19.843c-0.158,0.158-0.311,0.322-0.463,0.48c-0.146,0.152-0.299,0.305-0.457,0.445
		c-0.135,0.123-0.275,0.246-0.428,0.352c-0.24,0.158-0.574,0.322-0.873,0.193c-0.205-0.088-0.334-0.287-0.375-0.521
		c-0.035-0.193-0.006-0.398,0.047-0.574c0.123-0.422,0.387-0.779,0.697-1.031c0.387-0.316,0.961-0.504,1.465-0.369
		c0.1,0.029,0.182,0.117,0.217,0.223c0.059-0.059,0.117-0.117,0.176-0.176c0.123-0.117,0.275-0.258,0.475-0.199
		c0.24,0.076,0.293,0.281,0.281,0.475c-0.369,3.563,2.203,1.354,3.275,0.434c0.199-0.17,0.48-0.205,0.539,0.117
		c0.053,0.281-0.17,0.457-0.422,0.668c-0.832,0.709-3.732,2.771-4.125-0.064C59.521,20.147,59.509,19.995,59.515,19.843z
		 M58.952,19.456c-0.305-0.041-0.656,0.1-0.879,0.275c-0.24,0.182-0.445,0.451-0.539,0.768c-0.012,0.047-0.029,0.117-0.035,0.182
		c0.105-0.023,0.264-0.117,0.322-0.158c0.135-0.088,0.258-0.193,0.375-0.305c0.146-0.135,0.293-0.275,0.434-0.422
		C58.735,19.685,58.847,19.573,58.952,19.456z"/>
	<path style="fill:#FF4040;" d="M55.735,28.181c0-0.662,0.428-1.494,1.471-2.373c1.102-0.932,2.9-1.91,5.607-2.807
		c0.305-1.055,0.48-2.133,0.68-3.234c0.023-0.141,0.164-0.223,0.305-0.223c0.123,0,0.246,0.059,0.316,0.182
		c0.029,0.059,0.047,0.117,0.047,0.176l-0.006,0.064c-0.17,0.943-0.375,1.875-0.621,2.789c1.213-0.463,2.988-1.723,4.318-2.924
		c0.041-0.117,0.129-0.164,0.223-0.164c0.17,0,0.363,0.158,0.363,0.363c0,0.041-0.012,0.076-0.023,0.117
		c-2.35,2.438-5.109,3.416-5.109,3.416c-1.301,4.512-3.902,6.123-5.689,6.123C56.521,29.687,55.735,29.089,55.735,28.181z
		 M62.562,23.815c-4.559,1.594-6.117,3.322-6.117,4.342c0,0.551,0.457,0.896,1.143,0.896C58.958,29.054,61.243,27.671,62.562,23.815
		z M63.933,19.269c-0.082-0.023-0.146-0.088-0.193-0.17c-0.035-0.059-0.047-0.123-0.047-0.182c0-0.029,0-0.053,0.006-0.076
		l0.035-0.188c0.023-0.141,0.135-0.234,0.264-0.234c0.059,0,0.076,0.012,0.146,0.035c0.076,0.029,0.146,0.088,0.193,0.17
		c0.035,0.059,0.047,0.123,0.047,0.188c0,0.023,0,0.053-0.006,0.076l-0.029,0.182c-0.029,0.146-0.141,0.234-0.264,0.234
		C64.021,19.304,64.003,19.292,63.933,19.269z"/>
	<path style="fill:#FF4040;" d="M70.173,19.843c-0.158,0.158-0.311,0.322-0.463,0.48c-0.146,0.152-0.299,0.305-0.457,0.445
		c-0.135,0.123-0.275,0.246-0.428,0.352c-0.24,0.158-0.574,0.322-0.873,0.193c-0.205-0.088-0.334-0.287-0.375-0.521
		c-0.035-0.193-0.006-0.398,0.047-0.574c0.123-0.422,0.387-0.779,0.697-1.031c0.387-0.316,0.961-0.504,1.465-0.369
		c0.1,0.029,0.182,0.117,0.217,0.223c0.059-0.059,0.117-0.117,0.176-0.176c0.123-0.117,0.275-0.258,0.475-0.199
		c0.24,0.076,0.293,0.281,0.281,0.475c-0.369,3.563,2.203,1.354,3.275,0.434c0.199-0.17,0.48-0.205,0.539,0.117
		c0.053,0.281-0.17,0.457-0.422,0.668c-0.832,0.709-3.732,2.771-4.125-0.064C70.179,20.147,70.167,19.995,70.173,19.843z
		 M69.61,19.456c-0.305-0.041-0.656,0.1-0.879,0.275c-0.24,0.182-0.445,0.451-0.539,0.768c-0.012,0.047-0.029,0.117-0.035,0.182
		c0.105-0.023,0.264-0.117,0.322-0.158c0.135-0.088,0.258-0.193,0.375-0.305c0.146-0.135,0.293-0.275,0.434-0.422
		C69.394,19.685,69.505,19.573,69.61,19.456z"/>
	<path style="fill:#FF4040;" d="M66.394,28.181c0-0.662,0.428-1.494,1.471-2.373c1.102-0.932,2.9-1.91,5.607-2.807
		c0.305-1.055,0.48-2.133,0.68-3.234c0.023-0.141,0.164-0.223,0.305-0.223c0.123,0,0.246,0.059,0.316,0.182
		c0.029,0.059,0.047,0.117,0.047,0.176l-0.006,0.064c-0.17,0.943-0.375,1.875-0.621,2.789c1.213-0.463,2.988-1.723,4.318-2.924
		c0.041-0.117,0.129-0.164,0.223-0.164c0.17,0,0.363,0.158,0.363,0.363c0,0.041-0.012,0.076-0.023,0.117
		c-2.35,2.438-5.109,3.416-5.109,3.416c-1.301,4.512-3.902,6.123-5.689,6.123C67.179,29.687,66.394,29.089,66.394,28.181z
		 M73.22,23.815c-4.559,1.594-6.117,3.322-6.117,4.342c0,0.551,0.457,0.896,1.143,0.896C69.616,29.054,71.901,27.671,73.22,23.815z
		 M74.591,19.269c-0.082-0.023-0.146-0.088-0.193-0.17c-0.035-0.059-0.047-0.123-0.047-0.182c0-0.029,0-0.053,0.006-0.076
		l0.035-0.188c0.023-0.141,0.135-0.234,0.264-0.234c0.059,0,0.076,0.012,0.146,0.035c0.076,0.029,0.146,0.088,0.193,0.17
		c0.035,0.059,0.047,0.123,0.047,0.188c0,0.023,0,0.053-0.006,0.076l-0.029,0.182c-0.029,0.146-0.141,0.234-0.264,0.234
		C74.679,19.304,74.661,19.292,74.591,19.269z"/>
</g>
</svg>
